HIERARCHY
ROOT joint_Root
{
	OFFSET 0.0 0.0 0.0
	CHANNELS 6 Xposition Yposition Zposition Zrotation Xrotation Yrotation 
	JOINT Hips
	{
		OFFSET 4.5925 91.4895 -427.239
		CHANNELS 6 Xposition Yposition Zposition Zrotation Xrotation Yrotation 
		JOINT Spine
		{
			OFFSET 15.7357 0.0 0.0
			CHANNELS 6 Xposition Yposition Zposition Zrotation Xrotation Yrotation 
			JOINT Chest
			{
				OFFSET 8.98455 -0.406207 0.0
				CHANNELS 6 Xposition Yposition Zposition Zrotation Xrotation Yrotation 
				JOINT Neck
				{
					OFFSET 16.3773 0.0 0.0
					CHANNELS 6 Xposition Yposition Zposition Zrotation Xrotation Yrotation 
					JOINT Head
					{
						OFFSET 6.45672 0.0 0.0
						CHANNELS 6 Xposition Yposition Zposition Zrotation Xrotation Yrotation 
						End Site
						{
							OFFSET 0.0 0.0 0.0
						}
					}
				}
				JOINT Shoulder_L
				{
					OFFSET 12.9942 -0.242716 4.98039
					CHANNELS 6 Xposition Yposition Zposition Zrotation Xrotation Yrotation 
					JOINT UpperArm_L
					{
						OFFSET 5.34809 0.0 0.0
						CHANNELS 6 Xposition Yposition Zposition Zrotation Xrotation Yrotation 
						JOINT LowerArm_L
						{
							OFFSET 24.3286 1.87007e-05 0.0
							CHANNELS 6 Xposition Yposition Zposition Zrotation Xrotation Yrotation 
							JOINT Hand_L
							{
								OFFSET 22.2916 0.0 0.0
								CHANNELS 6 Xposition Yposition Zposition Zrotation Xrotation Yrotation 
								End Site
								{
									OFFSET 0.0 0.0 0.0
								}
							}
						}
					}
				}
				JOINT Shoulder_R
				{
					OFFSET 12.9945 -0.242716 -4.98039
					CHANNELS 6 Xposition Yposition Zposition Zrotation Xrotation Yrotation 
					JOINT UpperArm_R
					{
						OFFSET -5.34813 0.0 0.0
						CHANNELS 6 Xposition Yposition Zposition Zrotation Xrotation Yrotation 
						JOINT LowerArm_R
						{
							OFFSET -24.3289 0.000322201 0.0
							CHANNELS 6 Xposition Yposition Zposition Zrotation Xrotation Yrotation 
							JOINT Hand_R
							{
								OFFSET -22.2915 -0.000108084 0.0
								CHANNELS 6 Xposition Yposition Zposition Zrotation Xrotation Yrotation 
								End Site
								{
									OFFSET 0.0 0.0 0.0
								}
							}
						}
					}
				}
			}
		}
		JOINT UpperLeg_L
		{
			OFFSET -2.19248 -6.46944 0.0
			CHANNELS 6 Xposition Yposition Zposition Zrotation Xrotation Yrotation 
			JOINT LowerLeg_L
			{
				OFFSET 39.0811 0.0 -1.23785e-05
				CHANNELS 6 Xposition Yposition Zposition Zrotation Xrotation Yrotation 
				JOINT Foot_L
				{
					OFFSET 40.9854 0.0 -1.26872e-05
					CHANNELS 6 Xposition Yposition Zposition Zrotation Xrotation Yrotation 
					JOINT Toes_L
					{
						OFFSET 11.7543 0.0 0.0
						CHANNELS 6 Xposition Yposition Zposition Zrotation Xrotation Yrotation 
						End Site
						{
							OFFSET 0.0 0.0 0.0
						}
					}
				}
			}
		}
		JOINT UpperLeg_R
		{
			OFFSET -2.19251 6.46944 0.0
			CHANNELS 6 Xposition Yposition Zposition Zrotation Xrotation Yrotation 
			JOINT LowerLeg_R
			{
				OFFSET -39.0811 -0.00228153 -0.0401928
				CHANNELS 6 Xposition Yposition Zposition Zrotation Xrotation Yrotation 
				JOINT Foot_R
				{
					OFFSET -40.9854 0.0 0.0
					CHANNELS 6 Xposition Yposition Zposition Zrotation Xrotation Yrotation 
					JOINT Toes_R
					{
						OFFSET -11.7543 0.0 0.0
						CHANNELS 6 Xposition Yposition Zposition Zrotation Xrotation Yrotation 
						End Site
						{
							OFFSET 0.0 0.0 0.0
						}
					}
				}
			}
		}
	}
}
MOTION
Frames:	6
Frame Time:	0.0333333
0.000000 0.000000 0.000000 0.000000 0.000000 -0.000000 0.857428 90.232200 1.707210 89.134600 -6.151330 13.123100 15.735700 0.000005 -0.000001 89.069800 79.654600 -89.458300 8.984550 -0.406207 -0.000000 12.921100 -0.349966 -0.737208 16.377300 -0.000001 -0.000001 5.445850 -5.105650 1.707690 6.456720 -0.000001 -0.000000 -3.486340 -4.866310 -0.598016 12.994200 -0.242716 4.980390 -91.558300 7.062520 -77.523700 5.348090 -0.000007 -0.000001 -58.918600 37.795400 -21.486300 24.328600 0.000019 0.000005 9.123590 21.197700 -23.948000 22.291600 -0.000001 0.000005 11.470600 5.214790 2.345650 12.994500 -0.242716 -4.980390 88.947100 11.491700 -84.729500 -5.348130 -0.000001 -0.000004 -59.325400 37.690100 -17.121200 -24.328900 0.000322 -0.000009 3.219050 7.511750 -23.285100 -22.291500 -0.000108 -0.000004 14.836400 5.380730 -2.321200 -2.192480 -6.469440 -0.000000 -174.565000 -13.037700 3.627940 39.081100 -0.000007 -0.000012 -0.204572 0.316133 32.907600 40.985400 -0.000006 -0.000013 1.290330 4.062080 -73.171400 11.754300 -0.000000 0.000003 -0.000201 -0.001860 -16.647700 -2.192510 6.469440 -0.000001 171.501000 19.423600 -175.641000 -39.081100 -0.002282 -0.040193 -0.274417 0.445453 31.941700 -40.985400 0.000008 0.000006 2.718630 15.744800 -72.176900 -11.754300 -0.000006 -0.000006 -0.002003 -0.028758 -17.742500
0.000000 0.000000 0.000000 0.000000 0.000000 -0.000000 0.857180 90.230500 1.696570 89.119000 -6.161850 13.179500 15.735700 0.000005 -0.000001 89.084000 79.643800 -89.471600 8.984550 -0.406207 -0.000000 12.942800 -0.345266 -0.735975 16.377300 -0.000001 -0.000001 5.484130 -5.101000 1.731340 6.456720 -0.000001 -0.000000 -3.437720 -4.869170 -0.613352 12.994200 -0.242716 4.980390 -91.563900 7.066330 -77.486900 5.348090 -0.000007 -0.000001 -58.860600 37.837500 -21.310400 24.328600 0.000019 0.000005 9.505280 20.805000 -25.239500 22.291600 -0.000001 0.000005 11.302900 5.218740 2.244810 12.994500 -0.242716 -4.980390 88.933400 11.502000 -84.665700 -5.348130 -0.000001 -0.000004 -59.031900 37.872200 -17.215800 -24.328900 0.000322 -0.000009 3.370880 7.425770 -24.507200 -22.291500 -0.000108 -0.000004 14.858300 5.381920 -2.358800 -2.192480 -6.469440 -0.000000 -174.534000 -13.062900 3.670150 39.081100 -0.000007 -0.000012 -0.204357 0.315542 32.929000 40.985400 -0.000006 -0.000013 1.295290 4.058970 -73.174300 11.754300 -0.000000 0.000003 -0.000197 -0.001831 -16.646700 -2.192510 6.469440 -0.000001 171.524000 19.359800 -175.601000 -39.081100 -0.002282 -0.040193 -0.269010 0.436691 31.946900 -40.985400 0.000008 0.000006 2.714580 15.721500 -72.170200 -11.754300 -0.000006 -0.000006 -0.001641 -0.024135 -17.554500
0.000000 0.000000 0.000000 0.000000 0.000000 -0.000000 0.863788 90.225600 1.680840 89.109500 -6.124510 13.196400 15.735700 0.000005 -0.000001 89.014900 79.637300 -89.402400 8.984550 -0.406207 -0.000000 12.955400 -0.370247 -0.732921 16.377300 -0.000001 -0.000001 5.492600 -5.100970 1.772730 6.456720 -0.000001 -0.000000 -3.361180 -4.876970 -0.670197 12.994200 -0.242716 4.980390 -91.572000 7.075970 -77.441000 5.348090 -0.000007 -0.000001 -58.665900 37.923000 -21.289800 24.328600 0.000019 0.000005 9.899820 20.304900 -26.699100 22.291600 -0.000001 0.000005 11.351700 5.223590 2.120470 12.994500 -0.242716 -4.980390 88.926200 11.498900 -84.628600 -5.348130 -0.000001 -0.000004 -58.713400 38.015200 -17.294300 -24.328900 0.000322 -0.000009 3.644920 7.456710 -26.150600 -22.291500 -0.000108 -0.000004 14.930700 5.383540 -2.410090 -2.192480 -6.469440 -0.000000 -174.559000 -12.934300 3.639690 39.081100 -0.000007 -0.000012 -0.206870 0.318911 32.970900 40.985400 -0.000006 -0.000013 1.276380 3.991310 -73.177100 11.754300 -0.000000 0.000003 -0.000197 -0.001831 -16.646600 -2.192510 6.469440 -0.000001 171.508000 19.419800 -175.594000 -39.081100 -0.002282 -0.040193 -0.271943 0.440974 31.971500 -40.985400 0.000008 0.000006 2.719440 15.730400 -72.173600 -11.754300 -0.000006 -0.000006 -0.001876 -0.027156 -17.677300
0.000000 0.000000 0.000000 0.000000 0.000000 -0.000000 0.870761 90.226000 1.651600 89.094400 -6.094570 13.218200 15.735700 0.000005 -0.000001 89.009200 79.632800 -89.397500 8.984550 -0.406207 -0.000000 12.964400 -0.372503 -0.734260 16.377300 -0.000001 -0.000001 5.543100 -5.109210 1.773520 6.456720 -0.000001 -0.000000 -3.294960 -4.889290 -0.666541 12.994200 -0.242716 4.980390 -91.570000 7.030830 -77.379000 5.348090 -0.000007 -0.000001 -58.297700 38.139300 -21.526100 24.328600 0.000019 0.000005 10.381500 19.951100 -28.231300 22.291600 -0.000001 0.000005 11.199900 5.229320 1.973140 12.994500 -0.242716 -4.980390 88.914500 11.483000 -84.563000 -5.348130 -0.000001 -0.000004 -58.328400 38.201800 -17.434900 -24.328900 0.000322 -0.000009 3.977950 7.499150 -28.056300 -22.291500 -0.000108 -0.000004 14.947600 5.388220 -2.558520 -2.192480 -6.469440 -0.000000 -174.563000 -12.919400 3.631060 39.081100 -0.000007 -0.000012 -0.201271 0.310035 32.991500 40.985400 -0.000006 -0.000013 1.288720 3.979620 -73.171000 11.754300 -0.000000 0.000003 -0.000208 -0.001914 -16.649700 -2.192510 6.469440 -0.000001 171.513000 19.441500 -175.584000 -39.081100 -0.002282 -0.040193 -0.270788 0.439121 31.971500 -40.985400 0.000008 0.000006 2.712750 15.715700 -72.155400 -11.754300 -0.000006 -0.000006 -0.001989 -0.028580 -17.735200
0.000000 0.000000 0.000000 0.000000 0.000000 -0.000000 0.872586 90.227700 1.646940 89.099400 -6.046960 13.253600 15.735700 0.000005 -0.000001 88.992900 79.627800 -89.382700 8.984550 -0.406207 -0.000000 12.974100 -0.378627 -0.736649 16.377300 -0.000001 -0.000001 5.622160 -5.096290 1.788450 6.456720 -0.000001 -0.000000 -3.214960 -4.875650 -0.711854 12.994200 -0.242716 4.980390 -91.572000 7.016070 -77.337100 5.348090 -0.000007 -0.000001 -57.776500 38.362200 -21.874800 24.328600 0.000019 0.000005 11.012200 19.691100 -30.008000 22.291600 -0.000001 0.000005 11.115500 5.231890 1.906500 12.994500 -0.242716 -4.980390 88.899600 11.473700 -84.484500 -5.348130 -0.000001 -0.000004 -57.786400 38.441700 -17.679800 -24.328900 0.000322 -0.000009 4.360330 7.510930 -30.261900 -22.291500 -0.000108 -0.000004 14.994600 5.393210 -2.718240 -2.192480 -6.469440 -0.000000 -174.565000 -12.877300 3.653470 39.081100 -0.000007 -0.000012 -0.205095 0.315973 32.987600 40.985400 -0.000006 -0.000013 1.289420 3.992050 -73.157100 11.754300 -0.000000 0.000003 -0.000197 -0.001832 -16.646700 -2.192510 6.469440 -0.000001 171.483000 19.456200 -175.537000 -39.081100 -0.002282 -0.040193 -0.272314 0.441749 31.960900 -40.985400 0.000008 0.000006 2.708950 15.724000 -72.151000 -11.754300 -0.000006 -0.000006 -0.002026 -0.029037 -17.753800
0.000000 0.000000 0.000000 0.000000 0.000000 -0.000000 0.880836 90.227700 1.601570 89.095500 -6.032330 13.247200 15.735700 0.000005 -0.000001 89.045900 79.639500 -89.439500 8.984550 -0.406207 -0.000000 12.951100 -0.359367 -0.746490 16.377300 -0.000001 -0.000001 5.699700 -5.097250 1.786350 6.456720 -0.000001 -0.000000 -3.095410 -4.863740 -0.698261 12.994200 -0.242716 4.980390 -91.563100 6.961440 -77.312000 5.348090 -0.000007 -0.000001 -57.311300 38.337100 -22.269400 24.328600 0.000019 0.000005 11.799100 19.562800 -31.958500 22.291600 -0.000001 0.000005 11.051300 5.240350 1.686370 12.994500 -0.242716 -4.980390 88.881300 11.443300 -84.378900 -5.348130 -0.000001 -0.000004 -57.243600 38.599400 -18.014400 -24.328900 0.000322 -0.000009 4.938590 7.739140 -32.691400 -22.291500 -0.000108 -0.000004 15.125300 5.396110 -2.811300 -2.192480 -6.469440 -0.000000 -174.573000 -12.874700 3.591340 39.081100 -0.000007 -0.000012 -0.207577 0.319401 33.020000 40.985400 -0.000006 -0.000013 1.298970 3.988740 -73.136300 11.754300 -0.000000 0.000003 -0.000213 -0.001949 -16.650900 -2.192510 6.469440 -0.000001 171.507000 19.452700 -175.593000 -39.081100 -0.002282 -0.040193 -0.270703 0.438750 31.985300 -40.985400 0.000008 0.000006 2.704510 15.692000 -72.127500 -11.754300 -0.000006 -0.000006 -0.001998 -0.028685 -17.739500
